<svg width="281" height="84" viewBox="0 0 281 84" fill="none" xmlns="http://www.w3.org/2000/svg">
<path fill-rule="evenodd" clip-rule="evenodd" d="M0 7H35C54.33 7 70 22.67 70 42C70 61.33 54.33 77 35 77H0V7ZM9.04888 15.6329H26.6269V33.2111H60.9509V50.7891H26.6269V68.3669H9.04888V15.6329Z" fill="white"/>
<path d="M100.213 33H94.5879L94.623 28.5703H100.213C101.49 28.5703 102.568 28.2773 103.447 27.6914C104.326 27.0938 104.994 26.2148 105.451 25.0547C105.908 23.8828 106.137 22.459 106.137 20.7832V19.6055C106.137 18.3398 106.008 17.2266 105.75 16.2656C105.492 15.293 105.111 14.4785 104.607 13.8223C104.104 13.166 103.477 12.6738 102.727 12.3457C101.988 12.0176 101.139 11.8535 100.178 11.8535H94.4824V7.40625H100.178C101.912 7.40625 103.494 7.69922 104.924 8.28516C106.365 8.87109 107.607 9.70898 108.65 10.7988C109.705 11.8887 110.52 13.1777 111.094 14.666C111.668 16.1543 111.955 17.8125 111.955 19.6406V20.7832C111.955 22.5996 111.668 24.2578 111.094 25.7578C110.52 27.2461 109.705 28.5352 108.65 29.625C107.607 30.7031 106.371 31.5352 104.941 32.1211C103.512 32.707 101.936 33 100.213 33ZM97.8398 7.40625V33H92.1094V7.40625H97.8398ZM119.039 19.4297L124.225 16.1426C124.951 15.6738 125.414 15.2227 125.613 14.7891C125.824 14.3555 125.93 13.8984 125.93 13.418C125.93 12.9023 125.742 12.4219 125.367 11.9766C124.992 11.5313 124.465 11.3086 123.785 11.3086C123.293 11.3086 122.877 11.4199 122.537 11.6426C122.209 11.8652 121.957 12.1641 121.781 12.5391C121.617 12.9023 121.535 13.3066 121.535 13.752C121.535 14.2793 121.676 14.8184 121.957 15.3691C122.25 15.9082 122.637 16.4766 123.117 17.0742C123.598 17.6719 124.137 18.3281 124.734 19.043L136.775 33H130.605L120.779 21.7324C119.959 20.7012 119.244 19.752 118.635 18.8848C118.025 18.0176 117.551 17.1797 117.211 16.3711C116.871 15.5508 116.701 14.707 116.701 13.8398C116.701 12.4922 116.994 11.3086 117.58 10.2891C118.166 9.26953 118.986 8.47266 120.041 7.89844C121.107 7.32422 122.361 7.03711 123.803 7.03711C125.15 7.03711 126.316 7.3125 127.301 7.86328C128.285 8.41406 129.047 9.14648 129.586 10.0605C130.125 10.9746 130.395 11.9766 130.395 13.0664C130.395 13.8516 130.248 14.5898 129.955 15.2812C129.662 15.9609 129.258 16.5879 128.742 17.1621C128.238 17.7246 127.658 18.2402 127.002 18.709L121.254 22.7695C120.914 23.1094 120.65 23.4492 120.463 23.7891C120.287 24.1289 120.164 24.4629 120.094 24.791C120.023 25.1191 119.988 25.4531 119.988 25.793C119.988 26.4375 120.123 27.0117 120.393 27.5156C120.662 28.0078 121.037 28.3945 121.518 28.6758C121.998 28.957 122.543 29.0977 123.152 29.0977C124.102 29.0977 125.021 28.8867 125.912 28.4648C126.814 28.043 127.617 27.4453 128.32 26.6719C129.023 25.8984 129.58 24.9785 129.99 23.9121C130.412 22.834 130.623 21.6504 130.623 20.3613H135.264C135.264 21.709 135.129 22.9922 134.859 24.2109C134.59 25.418 134.156 26.5371 133.559 27.5684C132.961 28.5879 132.158 29.4902 131.15 30.2754C131.092 30.3223 130.986 30.3984 130.834 30.5039C130.693 30.6094 130.588 30.6855 130.518 30.7324C129.346 31.623 128.15 32.2852 126.932 32.7188C125.725 33.1523 124.348 33.3691 122.801 33.3691C121.09 33.3691 119.607 33.0586 118.354 32.4375C117.111 31.8164 116.15 30.9609 115.471 29.8711C114.791 28.7812 114.451 27.5332 114.451 26.127C114.451 25.1191 114.645 24.2402 115.031 23.4902C115.43 22.7285 115.975 22.0254 116.666 21.3809C117.357 20.7246 118.148 20.0742 119.039 19.4297ZM151.348 7.40625V33H145.635V7.40625H151.348ZM159.135 7.40625V11.8535H138.006V7.40625H159.135ZM102.199 66.1055H95.7656V61.6582H102.199C103.148 61.6582 103.91 61.5 104.484 61.1836C105.07 60.8672 105.498 60.4336 105.768 59.8828C106.049 59.3203 106.189 58.6875 106.189 57.9844C106.189 57.2578 106.049 56.584 105.768 55.9629C105.498 55.3301 105.07 54.8203 104.484 54.4336C103.91 54.0469 103.148 53.8535 102.199 53.8535H97.8398V75H92.1094V49.4062H102.199C104.238 49.4062 105.984 49.7754 107.438 50.5137C108.902 51.252 110.021 52.2656 110.795 53.5547C111.58 54.832 111.973 56.2969 111.973 57.9492C111.973 59.6016 111.58 61.0371 110.795 62.2559C110.021 63.4746 108.902 64.4238 107.438 65.1035C105.984 65.7715 104.238 66.1055 102.199 66.1055ZM123.064 54.2754L116.455 75H110.338L119.812 49.4062H123.68L123.064 54.2754ZM128.549 75L121.922 54.2754L121.236 49.4062H125.156L134.666 75H128.549ZM128.268 65.4727V69.9023H114.926V65.4727H128.268ZM136.793 49.4062H146.619C148.576 49.4062 150.27 49.6992 151.699 50.2852C153.141 50.8711 154.248 51.7383 155.021 52.8867C155.795 54.0352 156.182 55.4531 156.182 57.1406C156.182 58.5469 155.953 59.7422 155.496 60.7266C155.039 61.7109 154.395 62.5254 153.562 63.1699C152.742 63.8145 151.781 64.3359 150.68 64.7344L148.816 65.7539H140.449L140.414 61.3066H146.637C147.492 61.3066 148.201 61.1543 148.764 60.8496C149.326 60.5449 149.748 60.1172 150.029 59.5664C150.322 59.0039 150.469 58.3477 150.469 57.5977C150.469 56.8242 150.322 56.1562 150.029 55.5938C149.736 55.0312 149.303 54.6035 148.729 54.3105C148.166 54.0059 147.463 53.8535 146.619 53.8535H142.523V75H136.793V49.4062ZM150.961 75L145.213 63.627L151.26 63.6094L157.096 74.7363V75H150.961ZM171.035 49.4062V75H165.322V49.4062H171.035ZM178.822 49.4062V53.8535H157.693V49.4062H178.822ZM202.764 49.4062V75H197.051L187.383 58.459V75H181.652V49.4062H187.383L197.068 65.9473V49.4062H202.764ZM224.402 70.5703V75H210.779V70.5703H224.402ZM212.73 49.4062V75H207V49.4062H212.73ZM222.645 59.707V63.9961H210.779V59.707H222.645ZM224.42 49.4062V53.8535H210.779V49.4062H224.42ZM227.215 49.4062H237.041C238.998 49.4062 240.691 49.6992 242.121 50.2852C243.562 50.8711 244.67 51.7383 245.443 52.8867C246.217 54.0352 246.604 55.4531 246.604 57.1406C246.604 58.5469 246.375 59.7422 245.918 60.7266C245.461 61.7109 244.816 62.5254 243.984 63.1699C243.164 63.8145 242.203 64.3359 241.102 64.7344L239.238 65.7539H230.871L230.836 61.3066H237.059C237.914 61.3066 238.623 61.1543 239.186 60.8496C239.748 60.5449 240.17 60.1172 240.451 59.5664C240.744 59.0039 240.891 58.3477 240.891 57.5977C240.891 56.8242 240.744 56.1562 240.451 55.5938C240.158 55.0312 239.725 54.6035 239.15 54.3105C238.588 54.0059 237.885 53.8535 237.041 53.8535H232.945V75H227.215V49.4062ZM241.383 75L235.635 63.627L241.682 63.6094L247.518 74.7363V75H241.383ZM263.76 68.25C263.76 67.8164 263.695 67.4297 263.566 67.0898C263.438 66.7383 263.203 66.416 262.863 66.123C262.523 65.8301 262.043 65.5371 261.422 65.2441C260.801 64.9395 259.986 64.6289 258.979 64.3125C257.83 63.9375 256.734 63.5156 255.691 63.0469C254.66 62.5664 253.74 62.0098 252.932 61.377C252.123 60.7441 251.484 60.0059 251.016 59.1621C250.559 58.3184 250.33 57.334 250.33 56.209C250.33 55.1191 250.57 54.1348 251.051 53.2559C251.531 52.377 252.205 51.627 253.072 51.0059C253.939 50.373 254.959 49.8926 256.131 49.5645C257.303 49.2246 258.592 49.0547 259.998 49.0547C261.873 49.0547 263.52 49.3887 264.938 50.0566C266.367 50.7129 267.48 51.6387 268.277 52.834C269.074 54.0176 269.473 55.3945 269.473 56.9648H263.777C263.777 56.2734 263.631 55.6641 263.338 55.1367C263.057 54.5977 262.623 54.1758 262.037 53.8711C261.463 53.5664 260.742 53.4141 259.875 53.4141C259.031 53.4141 258.322 53.543 257.748 53.8008C257.186 54.0469 256.758 54.3867 256.465 54.8203C256.184 55.2539 256.043 55.7285 256.043 56.2441C256.043 56.6543 256.148 57.0293 256.359 57.3691C256.582 57.6973 256.898 58.0078 257.309 58.3008C257.73 58.582 258.246 58.8516 258.855 59.1094C259.465 59.3672 260.162 59.6133 260.947 59.8477C262.318 60.2812 263.531 60.7617 264.586 61.2891C265.652 61.8164 266.549 62.4141 267.275 63.082C268.002 63.75 268.547 64.5059 268.91 65.3496C269.285 66.1934 269.473 67.1484 269.473 68.2148C269.473 69.3516 269.25 70.3594 268.805 71.2383C268.371 72.1172 267.738 72.8672 266.906 73.4883C266.086 74.0977 265.102 74.5605 263.953 74.877C262.805 75.1934 261.521 75.3516 260.104 75.3516C258.814 75.3516 257.543 75.1875 256.289 74.8594C255.035 74.5195 253.898 74.0039 252.879 73.3125C251.871 72.6211 251.062 71.7422 250.453 70.6758C249.855 69.5977 249.557 68.3203 249.557 66.8438H255.287C255.287 67.6172 255.398 68.2734 255.621 68.8125C255.844 69.3398 256.16 69.7676 256.57 70.0957C256.992 70.4238 257.502 70.6582 258.1 70.7988C258.697 70.9395 259.365 71.0098 260.104 71.0098C260.959 71.0098 261.65 70.8926 262.178 70.6582C262.717 70.4121 263.115 70.0781 263.373 69.6562C263.631 69.2344 263.76 68.7656 263.76 68.25Z" fill="white"/>
</svg>
