<svg width="47" height="47" viewBox="0 0 47 47" fill="none" xmlns="http://www.w3.org/2000/svg">
<path fill-rule="evenodd" clip-rule="evenodd" d="M10 2C5.58172 2 2 5.58172 2 10C2 14.4183 5.58172 18 10 18H18V10C18 5.58172 14.4183 2 10 2ZM20 18V10C20 4.47715 15.5228 0 10 0C4.47715 0 0 4.47715 0 10C0 15.5228 4.47715 20 10 20H18H20V18ZM37 2C32.5817 2 29 5.58172 29 10C29 14.4183 32.5817 18 37 18H45V10C45 5.58172 41.4183 2 37 2ZM37 29C32.5817 29 29 32.5817 29 37C29 41.4183 32.5817 45 37 45H45V37C45 32.5817 41.4183 29 37 29ZM10 29C5.58172 29 2 32.5817 2 37C2 41.4183 5.58172 45 10 45H18V37C18 32.5817 14.4183 29 10 29ZM27 10C27 4.47715 31.4772 0 37 0C42.5228 0 47 4.47715 47 10V18V20H45H37C31.4772 20 27 15.5228 27 10ZM27 37C27 31.4772 31.4772 27 37 27C42.5228 27 47 31.4772 47 37V45V47H45H37C31.4772 47 27 42.5228 27 37ZM0 37C0 31.4772 4.47715 27 10 27C15.5228 27 20 31.4772 20 37V45V47H18H10C4.47715 47 0 42.5228 0 37Z" fill="#4341B6"/>
<path d="M40 9.86222V9.86234C40.0177 9.86237 40.0353 9.86192 40.0527 9.86104C40.0354 9.86182 40.0178 9.86222 40 9.86222H40ZM40.7586 9.51363C40.9192 9.31855 40.9978 9.07436 41 8.87068C40.9978 9.12949 40.8977 9.35124 40.7586 9.51363ZM41 10.0768V8.86604C41 8.86476 41 8.86349 41 8.86222V8.27556C41 8.27418 41 8.2728 41 8.27141V7.06101C41 5.97936 40.1595 5 39 5H35C33.8405 5 33 5.97936 33 7.06101V7.21455C33 7.7175 33.1817 8.19834 33.4927 8.56889C33.1817 8.93943 33 9.42027 33 9.92323V11.1378V11.7244V12.939C33 14.0206 33.8405 15 35 15H39C40.1595 15 41 14.0206 41 12.939V12.7855C41 12.2825 40.8183 11.8017 40.5072 11.4311C40.8183 11.0606 41 10.5797 41 10.0768ZM40.7496 7.61365C40.902 7.78615 40.9958 8.01166 40.9999 8.259C40.9969 8.08959 40.9484 7.85306 40.7704 7.63799C40.7636 7.62973 40.7566 7.62162 40.7496 7.61365ZM40 7.27556C40.1929 7.27556 40.3731 7.3302 40.5259 7.42487C40.3623 7.32384 40.1776 7.27556 40 7.27556Z" stroke="#4341B6" stroke-width="2"/>
<path d="M8 32C6.84046 32 6 32.9794 6 34.061V34.2145C6 34.7175 6.18172 35.1983 6.49275 35.5689C6.18172 35.9394 6 36.4203 6 36.9232V37.0768C6 37.5797 6.18172 38.0606 6.49275 38.4311C6.18172 38.8017 6 39.2825 6 39.7855V39.939C6 41.0206 6.84046 42 8 42H12C13.1595 42 14 41.0206 14 39.939V38.7244V38.1378V35.8622V35.2756V34.061C14 32.9794 13.1595 32 12 32H8Z" stroke="#4341B6" stroke-width="2"/>
<path d="M37 32.8592C36.6466 32.3487 36.0694 32 35.3777 32H34.9983C33.8382 32 33 32.981 33 34.061V36.5079C33 37.5879 33.8382 38.5689 34.9983 38.5689H36.2844C36.315 38.5716 36.3462 38.5729 36.3779 38.5729H36.624V39.939C36.624 41.019 37.4622 42 38.6223 42H39.0017C40.1618 42 41 41.019 41 39.939V37V34.061C41 32.981 40.1618 32 39.0017 32H38.6223C37.9306 32 37.3534 32.3487 37 32.8592Z" stroke="#4341B6" stroke-width="2"/>
<path d="M7.37457 9.36251V13.3634C7.37457 14.3623 8.23854 15 9.08074 15H12.2938C13.136 15 14 14.3623 14 13.3634V6.6366C14 5.6377 13.136 5 12.2938 5H9.08074C8.67953 5 8.29791 5.13416 7.99558 5.37302C7.98702 5.37977 7.97834 5.38663 7.96953 5.39359C7.77873 5.54429 7.53133 5.73969 7.32309 5.92634C7.32309 5.92634 7.32309 5.92634 7.32309 5.92634L6.52477 6.64189L7.19221 7.38655L6.52477 6.64189C5.97767 7.13226 5.87485 7.85762 6.1409 8.43902C6.36362 8.92571 6.8215 9.27498 7.37457 9.36251Z" stroke="#4341B6" stroke-width="2"/>
</svg>
