<svg width="54" height="54" viewBox="0 0 54 54" fill="none" xmlns="http://www.w3.org/2000/svg">
<path d="M23.3855 12.6019L14.928 2.83997C13.953 1.71503 12.1655 1.72003 11.033 2.85497L4.07807 9.82205C2.00808 11.8944 1.41558 14.9717 2.61308 17.4391C9.76708 32.2506 21.7131 44.2127 36.5154 51.3871C38.9804 52.5845 42.0554 51.992 44.1254 49.9196L51.1453 42.8876C52.2828 41.7501 52.2853 39.9527 51.1503 38.9778L41.3504 30.5658C40.3254 29.6859 38.7329 29.8008 37.7054 30.8308L34.2954 34.2456C34.1208 34.4285 33.891 34.5491 33.6413 34.5889C33.3915 34.6286 33.1357 34.5853 32.9129 34.4656C27.3391 31.256 22.7154 26.6266 19.513 21.0489C19.3931 20.8258 19.3496 20.5695 19.3894 20.3193C19.4291 20.0691 19.5498 19.8389 19.733 19.664L23.133 16.2617C24.163 15.2267 24.2755 13.6293 23.3855 12.6019Z" stroke="#4341B6" stroke-width="3" stroke-linecap="round" stroke-linejoin="round"/>
</svg>
