<svg width="50" height="56" viewBox="0 0 50 56" fill="none" xmlns="http://www.w3.org/2000/svg">
<path fill-rule="evenodd" clip-rule="evenodd" d="M22.88 29.5016C23.1902 29.0858 23.6206 28.7643 24.12 28.5883V18.9672V17.0379C24.12 16.5519 24.514 16.1579 25 16.1579C25.486 16.1579 25.88 16.5519 25.88 17.0379V18.9672V28.5883C26.1256 28.6749 26.3544 28.7966 26.5606 28.9474C26.7736 29.1033 26.9623 29.2903 27.12 29.5016C27.2757 29.7104 27.4012 29.9431 27.4898 30.193H31.8691H33.8028C34.2873 30.193 34.68 30.5857 34.68 31.0702C34.68 31.5546 34.2873 31.9474 33.8028 31.9474H31.8691H27.4898C27.3114 32.4503 26.9841 32.8831 26.5606 33.193C26.1234 33.5128 25.5838 33.7018 25 33.7018C23.542 33.7018 22.36 32.5236 22.36 31.0702C22.36 30.4824 22.5533 29.9397 22.88 29.5016ZM20.153 0C17.285 0 14.96 2.32498 14.96 5.19298C14.96 6.18988 15.2409 7.12117 15.7279 7.91202C6.51446 11.5836 0 20.563 0 31.0702C0 44.8476 11.2019 56 25 56C38.7981 56 50 44.8476 50 31.0702C50 20.563 43.4855 11.5836 34.2721 7.91202C34.7591 7.12117 35.04 6.18988 35.04 5.19298C35.04 2.32497 32.715 0 29.847 0H20.153ZM17.96 5.19298C17.96 5.89125 18.2864 6.51329 18.7948 6.9149C19.1683 7.2099 19.6401 7.38596 20.153 7.38596H20.24H23.0961H23.24V9.2095C22.1885 9.29247 21.1577 9.44914 20.153 9.67434C19.5914 9.80019 19.038 9.94745 18.4937 10.1152C9.51969 12.8807 3 21.2165 3 31.0702C3 43.1817 12.8497 53 25 53C37.1503 53 47 43.1817 47 31.0702C47 21.2165 40.4803 12.8807 31.5063 10.1152C30.962 9.94745 30.4086 9.80019 29.847 9.67434C28.8423 9.44914 27.8115 9.29247 26.76 9.2095V7.38596H26.9039H29.76H29.847C30.3599 7.38596 30.8317 7.2099 31.2052 6.9149C31.7137 6.51329 32.04 5.89125 32.04 5.19298C32.04 3.98183 31.0582 3 29.847 3H20.153C18.9418 3 17.96 3.98183 17.96 5.19298ZM25 51C36.0457 51 45 42.0457 45 31C45 19.9543 36.0457 11 25 11C13.9543 11 5 19.9543 5 31C5 42.0457 13.9543 51 25 51ZM42 31C42 40.3888 34.3888 48 25 48C15.6112 48 8 40.3888 8 31C8 21.6112 15.6112 14 25 14C34.3888 14 42 21.6112 42 31Z" fill="#4341B6"/>
</svg>
