<svg width="199" height="190" viewBox="0 0 199 190" fill="none" xmlns="http://www.w3.org/2000/svg">
<rect x="95.5" y="54.5" width="9" height="127" fill="#4341B6" stroke="#4341B6"/>
<rect x="30.5" y="69.5" width="9" height="139" rx="4.5" transform="rotate(-90 30.5 69.5)" fill="#4341B6" stroke="#4341B6"/>
<rect x="49.5" y="189.5" width="9" height="101" rx="4.5" transform="rotate(-90 49.5 189.5)" fill="#4341B6" stroke="#4341B6"/>
<mask id="path-4-inside-1_114_1570" fill="white">
<path fill-rule="evenodd" clip-rule="evenodd" d="M100 56C115.464 56 128 43.464 128 28C128 12.536 115.464 0 100 0C84.536 0 72 12.536 72 28C72 43.464 84.536 56 100 56Z"/>
</mask>
<path d="M121 28C121 39.598 111.598 49 100 49V63C119.33 63 135 47.33 135 28H121ZM100 7C111.598 7 121 16.402 121 28H135C135 8.67003 119.33 -7 100 -7V7ZM79 28C79 16.402 88.402 7 100 7V-7C80.67 -7 65 8.67003 65 28H79ZM100 49C88.402 49 79 39.598 79 28H65C65 47.33 80.67 63 100 63V49Z" fill="#4341B6" mask="url(#path-4-inside-1_114_1570)"/>
<mask id="path-6-inside-2_114_1570" fill="white">
<path fill-rule="evenodd" clip-rule="evenodd" d="M160 102C165.523 102 170 97.5228 170 92C170 86.4772 165.523 82 160 82C154.477 82 150 86.4772 150 92C150 97.5228 154.477 102 160 102ZM160 109C169.389 109 177 101.389 177 92C177 82.6112 169.389 75 160 75C150.611 75 143 82.6112 143 92C143 101.389 150.611 109 160 109Z"/>
</mask>
<path d="M163 92C163 93.6569 161.657 95 160 95V109C169.389 109 177 101.389 177 92H163ZM160 89C161.657 89 163 90.3431 163 92H177C177 82.6112 169.389 75 160 75V89ZM157 92C157 90.3431 158.343 89 160 89V75C150.611 75 143 82.6112 143 92H157ZM160 95C158.343 95 157 93.6569 157 92H143C143 101.389 150.611 109 160 109V95ZM170 92C170 97.5228 165.523 102 160 102V116C173.255 116 184 105.255 184 92H170ZM160 82C165.523 82 170 86.4772 170 92H184C184 78.7452 173.255 68 160 68V82ZM150 92C150 86.4772 154.477 82 160 82V68C146.745 68 136 78.7452 136 92H150ZM160 102C154.477 102 150 97.5228 150 92H136C136 105.255 146.745 116 160 116V102Z" fill="#4341B6" mask="url(#path-6-inside-2_114_1570)"/>
<mask id="path-8-inside-3_114_1570" fill="white">
<path fill-rule="evenodd" clip-rule="evenodd" d="M39 102C44.5228 102 49 97.5228 49 92C49 86.4772 44.5228 82 39 82C33.4772 82 29 86.4772 29 92C29 97.5228 33.4772 102 39 102ZM39 109C48.3888 109 56 101.389 56 92C56 82.6112 48.3888 75 39 75C29.6112 75 22 82.6112 22 92C22 101.389 29.6112 109 39 109Z"/>
</mask>
<path d="M42 92C42 93.6569 40.6569 95 39 95V109C48.3888 109 56 101.389 56 92H42ZM39 89C40.6569 89 42 90.3431 42 92H56C56 82.6112 48.3888 75 39 75V89ZM36 92C36 90.3431 37.3431 89 39 89V75C29.6112 75 22 82.6112 22 92H36ZM39 95C37.3431 95 36 93.6569 36 92H22C22 101.389 29.6112 109 39 109V95ZM49 92C49 97.5228 44.5228 102 39 102V116C52.2548 116 63 105.255 63 92H49ZM39 82C44.5228 82 49 86.4772 49 92H63C63 78.7452 52.2548 68 39 68V82ZM29 92C29 86.4772 33.4772 82 39 82V68C25.7452 68 15 78.7452 15 92H29ZM39 102C33.4772 102 29 97.5228 29 92H15C15 105.255 25.7452 116 39 116V102Z" fill="#4341B6" mask="url(#path-8-inside-3_114_1570)"/>
<path d="M123.5 128.5H195.5V133.5C195.5 153.382 179.382 169.5 159.5 169.5C139.618 169.5 123.5 153.382 123.5 133.5V128.5Z" stroke="#4341B6" stroke-width="7"/>
<path d="M3.5 128.5H75.5V133.5C75.5 153.382 59.3823 169.5 39.5 169.5C19.6178 169.5 3.5 153.382 3.5 133.5V128.5Z" stroke="#4341B6" stroke-width="7"/>
<rect x="170.683" y="98.683" width="4" height="37" transform="rotate(-30 170.683 98.683)" fill="#4341B6" stroke="#4341B6"/>
<rect x="50.683" y="98.683" width="4" height="37" transform="rotate(-30 50.683 98.683)" fill="#4341B6" stroke="#4341B6"/>
<rect x="-0.683013" y="0.183013" width="4" height="37" transform="matrix(-0.866025 -0.5 -0.5 0.866025 148.147 98.183)" fill="#4341B6" stroke="#4341B6"/>
<rect x="-0.683013" y="0.183013" width="4" height="37" transform="matrix(-0.866025 -0.5 -0.5 0.866025 28.1471 98.183)" fill="#4341B6" stroke="#4341B6"/>
</svg>
