<svg width="409" height="409" viewBox="0 0 409 409" fill="none" xmlns="http://www.w3.org/2000/svg">
<path fill-rule="evenodd" clip-rule="evenodd" d="M10 10H204.5C311.919 10 399 97.0806 399 204.5C399 311.919 311.919 399 204.5 399H10V10ZM0 0H10H204.5C317.442 0 409 91.5578 409 204.5C409 317.442 317.442 409 204.5 409H10H0V399V10V0ZM152.158 255.625V265.625V349.092V359.092H142.158H59.9077H49.9077V349.092V59.9077V49.9077H59.9077H142.158H152.158V59.9077V143.375V153.375H162.158H347.875H357.875V163.375V245.625V255.625H347.875H162.158H152.158ZM142.158 255.625V349.092H59.9077V59.9077H142.158V153.375V163.375H152.158H347.875V245.625H152.158H142.158V255.625Z" fill="#4341B6"/>
</svg>
